<svg version="1.1" id="Calque_1" xmlns="http://www.w3.org/2000/svg" xmlns:xlink="http://www.w3.org/1999/xlink" x="0px" y="0px" viewBox="0 0 391.2 60.4" enable-background="new 0 0 391.2 60.4" xml:space="preserve">
<g>
  <path fill="#002C5C" d="M94.9,20.2h11v4.4c1.1-2.1,3.2-5.7,9.9-5.7v11.7h-0.4c-6,0-8.8,2.2-8.8,7.7v20.9H94.9V20.2z"/>
  <path fill="#002C5C" d="M121.8,20.2h10.9v4.1c1.3-1.9,3.8-5.5,10.8-5.5c13.1,0,14.5,10.7,14.5,15.9v24.4h-11.7V37.9     c0-4.3-0.9-8.1-6.1-8.1c-5.8,0-6.7,4.1-6.7,8.1v21.2h-11.7V20.2z"/>
  <path fill="#002C5C" d="M164,20h11.7v39.2H164V20z"/>
  <path fill="#002C5C" d="M228.5,20.2h11v4.4c1.1-2.1,3.2-5.7,9.9-5.7v11.7H249c-6,0-8.8,2.2-8.8,7.7v20.9h-11.7V20.2z"/>
  <path fill="#FBDD06" d="M310,44.3c-2.1,8.9-9.9,16.1-20.4,16.1c-11.8,0-20.9-9.3-20.9-20.9c0-11.4,8.9-20.7,20.6-20.7     c10.3,0,18.7,6.8,20.7,16.4h-11.8c-1.3-2.7-3.6-5.5-8.4-5.5c-2.7-0.1-5.1,0.9-6.7,2.7c-1.6,1.8-2.5,4.4-2.5,7.2     c0,5.7,3.7,9.9,9.3,9.9c4.8,0,7.2-2.8,8.4-5.2H310z"/>
  <path fill="#FBDD06" d="M316.3,20.2h11v4.4c1.1-2.1,3.2-5.7,9.9-5.7v11.7h-0.4c-6,0-8.8,2.2-8.8,7.7v20.9h-11.7V20.2z"/>
  <path fill="#002C5C" d="M42.4,6.2c0-3.2-2.6-5.8-5.8-5.8c-3.2,0-5.8,2.6-5.8,5.8h0v12.5v4.2c-1.3-1.3-4.6-4.6-11.5-4.6     C9.4,18.3,0,25.8,0,39c0,11.7,7.7,20.9,19.5,20.9c7.9,0,10.7-3.9,11.8-5.5v-0.1h0c0,3.1,2.5,5.5,5.5,5.5c3.1,0,5.5-2.5,5.5-5.5V6.2     L42.4,6.2z M28.7,46c-1.8,1.8-4.4,3-7.2,3c-5.5,0-9.8-4-9.8-10v-0.1c0-4.5,3.2-9.8,9.9-9.8c2.7,0,5.2,1,7,2.7     c1.8,1.7,2.9,4.1,2.9,6.9C31.5,41.7,30.5,44.2,28.7,46z"/>
  <circle fill="#002C5C" cx="169.8" cy="7.7" r="7.3"/>
  <path fill="#002C5C" d="M88.7,43.1c0.9-7.2-0.6-13.3-5.5-18.6c-3.7-3.9-8.8-6.2-14.8-6.2c-11.9,0-20.4,10-20.4,20.9     c0,11.6,9.5,20.7,20.7,20.7c4,0,7.9-1.2,11.1-3.5c3.3-2.2,6-5.6,7.9-10H76c-0.4,0.6-0.9,1.1-1.5,1.5c-0.9,0.9-2.1,1.6-3.6,1.9     c-0.8,0.2-1.7,0.4-2.7,0.4c-5.6,0-10.1-4.7-10.1-10.6v-0.9c0-5.8,4.5-10.6,10.1-10.6c0,0,0.1,0,0.1,0c0.1,0,0.1,0,0.2,0     c5.3,0,7.8,3.3,8.5,5.4c0.1,0.3,0.2,0.5,0.4,0.8h-7.7c-2.4,0-4.4,2-4.4,4.4c0,2.4,2,4.4,4.4,4.4h8C77.7,43.1,88.7,43.1,88.7,43.1z"/>
  <path fill="#002C5C" d="M222.3,43.1c0.9-7.2-0.6-13.3-5.5-18.6c-3.7-3.9-8.8-6.2-14.8-6.2c-11.9,0-20.4,10-20.4,20.9     c0,11.6,9.5,20.7,20.7,20.7c4,0,7.9-1.2,11.1-3.5c3.3-2.2,6-5.6,7.9-10h-11.7c-0.4,0.6-0.9,1.1-1.5,1.5c-0.9,0.9-2.1,1.6-3.6,1.9     c-0.8,0.2-1.7,0.4-2.7,0.4c-5.6,0-10.1-4.7-10.1-10.6v-0.9c0-5.8,4.5-10.6,10.1-10.6c0,0,0.1,0,0.1,0c0.1,0,0.1,0,0.2,0     c5.3,0,7.8,3.3,8.5,5.4c0.1,0.3,0.2,0.5,0.4,0.8h-7.7c-2.4,0-4.4,2-4.4,4.4c0,2.4,2,4.4,4.4,4.4h8     C211.3,43.1,222.3,43.1,222.3,43.1z"/>
  <g>
    <g>
      <path fill="#FBDD06" d="M361,0.5c-4,0-7.2,3.3-7.2,7.3c0,4,3.2,7.3,7.2,7.3s7.2-3.3,7.2-7.3C368.2,3.7,365,0.5,361,0.5z"/>
    </g>
  </g>
  <path fill="#FBDD06" d="M366.8,37c0-1.7-0.7-3.2-1.9-4.3l-11.4-13.8l-8.9,7.3l10.7,13v20h11.5V37L366.8,37     C366.8,37,366.8,37,366.8,37z"/>
  <g>
    <path fill="#FBDD06" d="M385.6,0c3.1,0,5.6,2.6,5.6,5.6c0,3.1-2.5,5.6-5.6,5.6c-3.1,0-5.6-2.5-5.6-5.6C379.9,2.6,382.4,0,385.6,0       L385.6,0z M385.6,1.1c-2.5,0-4.4,2-4.4,4.5c0,2.5,2,4.5,4.4,4.5c2.4,0,4.4-2,4.4-4.5C389.9,3.2,388,1.1,385.6,1.1L385.6,1.1z        M385.8,2.4c1.2,0,2.3,0.5,2.3,1.8c0,0.5-0.2,1.1-1,1.5c0.5,0.2,0.8,0.5,0.9,1.5c0.1,1.1,0.1,1.2,0.2,1.5h-1.5       c-0.1-0.2-0.2-1.3-0.2-1.5c0-0.4-0.1-0.9-1.1-0.9h-0.6v2.4h-1.6V2.4H385.8z M384.7,3.5v1.8h0.7c0.3,0,1.1,0,1.1-1       c0-0.8-0.7-0.8-1-0.8H384.7z"/>
  </g>
</g>
</svg>